#!OML:ASF I:\Actors\actors\Patient Classification 2\Patient 1\Session 1\actor1.ASF
:FULLY-SPECIFIED
:DEGREES
532
root -1.00532 17.7669 5.75464 -9.27188 4.1992 -1.97323
lowerback 4.93686 -1.22788 6.77584
upperback -0.326722 -1.06783 5.02344
thorax -3.14614 -0.597218 1.48893
lowerneck 5.10227 -21.4189 -17.51
upperneck 7.94828 -31.4109 17.9268
head 7.21341 -15.5109 5.25412
rclavicle -1.11319e-014 6.36111e-014
rhumerus -32.0089 36.0082 -52.1874
rradius 120.664
rwrist -15.996
rhand -10.4318 -29.7698
rfingers 7.12502
rthumb 15.5678 -59.1632
lclavicle -1.11319e-014 6.36111e-014
lhumerus -36.8195 -49.4087 81.4377
lradius 115.245
lwrist 36.7583
lhand -12.8999 -15.7219
lfingers 7.12502
lthumb 13.1897 13.8409
rfemur 30.3137 -4.36138 16.5033
rtibia -20.2846
rfoot -12.3937 -20.2718
rtoes -2.45712
lfemur 28.8678 -8.09376 -15.0259
ltibia -23.897
lfoot 1.39137 9.82006
ltoes -10.6402
533
root -1.00705 17.7715 5.73134 -9.29705 4.65546 -2.02457
lowerback 5.59156 -1.24512 6.80263
upperback -0.236714 -1.02374 5.05216
thorax -3.4206 -0.579171 1.51519
lowerneck 5.36401 -21.457 -17.6057
upperneck 7.97659 -31.4981 17.9465
head 7.21536 -15.5695 5.27932
rclavicle -2.5842e-014 1.74931e-014
rhumerus -33.895 36.0536 -54.0694
rradius 119.422
rwrist -15.3783
rhand -10.9917 -29.9352
rfingers 7.12502
rthumb 15.0285 -59.3698
lclavicle -2.5842e-014 1.74931e-014
lhumerus -36.6915 -49.4414 81.6234
lradius 115.529
lwrist 36.7059
lhand -12.9158 -15.5198
lfingers 7.12502
lthumb 13.1743 14.044
rfemur 30.2218 -4.56371 16.519
rtibia -20.1213
rfoot -12.597 -20.3973
rtoes -2.20179
lfemur 28.7297 -8.52482 -15.0669
ltibia -23.9688
lfoot 1.61939 9.94106
ltoes -11.0908
534
root -1.00996 17.7781 5.70468 -9.31725 5.1595 -2.08465
lowerback 5.95439 -1.2285 6.57659
upperback 0.0994674 -0.996618 5.2892
thorax -3.26541 -0.552607 1.88702
lowerneck 5.44775 -21.548 -17.8513
upperneck 7.73967 -31.6192 18.1594
head 7.22426 -15.6363 5.34679
rclavicle -9.93923e-016 4.77083e-014
rhumerus -34.7894 35.7175 -55.1086
rradius 117.752
rwrist -14.5078
rhand -11.3971 -29.9927
rfingers 7.12502
rthumb 14.6379 -59.4561
lclavicle -9.93923e-016 4.77083e-014
lhumerus -36.0389 -49.4292 81.7742
lradius 115.667
lwrist 36.2536
lhand -13.24 -15.5116
lfingers 7.12502
lthumb 12.8619 14.0721
rfemur 30.1126 -4.85929 16.5256
rtibia -19.9325
rfoot -12.7801 -20.5036
rtoes -1.87368
lfemur 28.564 -8.88794 -15.067
ltibia -24.0679
lfoot 2.03815 10.031
ltoes -11.3528
535
root -1.01461 17.7869 5.67525 -9.29572 5.68195 -2.09303
lowerback 6.26324 -1.20026 6.29824
upperback 0.46535 -0.967771 5.51063
thorax -3.04861 -0.52475 2.27005
lowerneck 5.49369 -21.6586 -18.0429
upperneck 7.34353 -31.7433 18.4496
head 7.19443 -15.7038 5.43062
rclavicle -3.02153e-014 2.54444e-014
rhumerus -34.9608 35.0743 -55.7878
rradius 115.598
rwrist -13.334
rhand -13.8424 -28.7622
rfingers 7.12502
rthumb 12.2811 -58.3816
lclavicle -3.02153e-014 2.54444e-014
lhumerus -35.2329 -49.5183 81.8268
lradius 115.624
lwrist 35.5983
lhand -13.9156 -15.872
lfingers 7.12502
lthumb 12.2105 13.7516
rfemur 29.9406 -5.17971 16.4847
rtibia -19.7125
rfoot -12.9013 -20.606
rtoes -1.78967
lfemur 28.3363 -9.10878 -15.0692
ltibia -24.1853
lfoot 2.56628 10.0414
ltoes -11.1747
536
root -1.0207 17.7968 5.64434 -9.26156 6.08043 -2.1311
lowerback 6.17227 -1.12439 6.09315
upperback 1.07093 -0.933882 5.7212
thorax -2.36003 -0.488187 2.58654
lowerneck 5.70466 -21.7242 -18.174
upperneck 6.31373 -31.7648 19.13
head 6.97956 -15.7433 5.6788
rclavicle -1.78906e-015 -2.38542e-014
rhumerus -33.894 33.8399 -55.7225
rradius 113.044
rwrist -11.4382
rhand -10.4859 -30.1661
rfingers 7.12502
rthumb 15.5157 -59.5636
lclavicle -1.78906e-015 -2.38542e-014
lhumerus -33.6559 -49.4753 81.2274
lradius 115.531
lwrist 35.7084
lhand -14.0747 -15.869
lfingers 7.12502
lthumb 12.0571 13.7637
rfemur 29.7153 -5.36653 16.5204
rtibia -19.4754
rfoot -13.012 -20.7378
rtoes -1.54839
lfemur 28.0992 -9.13383 -14.987
ltibia -24.2983
lfoot 3.05172 9.95255
ltoes -11.3947
537
root -1.02695 17.8067 5.61424 -9.22369 6.38664 -2.16946
lowerback 6.55876 -1.08538 6.16239
upperback 1.33893 -0.856925 5.77109
thorax -2.29787 -0.446401 2.59801
lowerneck 5.94121 -21.804 -18.1787
upperneck 5.62953 -31.8219 19.4851
head 6.80033 -15.7994 5.81458
rclavicle -4.47266e-015 -1.43125e-014
rhumerus -33.1162 33.3737 -56.3964
rradius 110.527
rwrist -11.9364
rhand -12.7177 -29.1153
rfingers 7.12502
rthumb 13.3653 -58.6667
lclavicle -4.47266e-015 -1.43125e-014
lhumerus -32.9583 -49.4619 80.8449
lradius 115.691
lwrist 36.3619
lhand -13.6923 -15.5323
lfingers 7.12502
lthumb 12.4258 14.0783
rfemur 29.4764 -5.46632 16.5798
rtibia -19.2379
rfoot -13.1379 -20.8766
rtoes -1.19858
lfemur 27.8736 -9.042 -14.8895
ltibia -24.3912
lfoot 3.4945 9.79737
ltoes -12.1843
538
root -1.03497 17.8172 5.58699 -9.18896 6.65965 -2.18484
lowerback 6.91533 -1.02026 6.23869
upperback 1.57259 -0.74512 5.80171
thorax -2.25454 -0.387843 2.58181
lowerneck 6.0801 -21.8869 -18.236
upperneck 5.16426 -31.8998 19.7452
head 6.70191 -15.8558 5.90416
rclavicle 1.45113e-014 2.38542e-014
rhumerus -31.115 32.4689 -55.958
rradius 107.457
rwrist -9.49528
rhand -10.0157 -29.6719
rfingers 7.12502
rthumb 15.9685 -59.0337
lclavicle 1.45113e-014 2.38542e-014
lhumerus -32.4005 -49.59 80.5183
lradius 115.823
lwrist 36.7008
lhand -13.3335 -15.267
lfingers 7.12502
lthumb 12.7717 14.3224
rfemur 29.2611 -5.5007 16.6404
rtibia -19.0118
rfoot -13.3601 -21.0106
rtoes -0.728676
lfemur 27.6618 -8.85623 -14.8051
ltibia -24.4545
lfoot 3.97464 9.5841
ltoes -13.3558
